<svg width="16" height="16" viewBox="0 0 16 16" fill="none" xmlns="http://www.w3.org/2000/svg">
<path d="M9.00016 2.00004C9.00016 1.63185 8.7017 1.33337 8.3335 1.33337H7.66683C7.29863 1.33337 7.00016 1.63185 7.00016 2.00004V7.00004H2.00016C1.63198 7.00004 1.3335 7.29851 1.3335 7.66671V8.33337C1.3335 8.70157 1.63198 9.00004 2.00016 9.00004H7.00016V14C7.00016 14.3682 7.29863 14.6667 7.66683 14.6667H8.3335C8.7017 14.6667 9.00016 14.3682 9.00016 14V9.00004H14.0002C14.3684 9.00004 14.6668 8.70157 14.6668 8.33337V7.66671C14.6668 7.29851 14.3684 7.00004 14.0002 7.00004H9.00016V2.00004Z" fill="currentColor"/>
</svg>
